<?xml version="1.0" encoding="UTF-8" standalone="no"?>
<!DOCTYPE svg PUBLIC "-//W3C//DTD SVG 1.1//EN"
 "http://www.w3.org/Graphics/SVG/1.1/DTD/svg11.dtd">
<!-- Generated by graphviz version 2.44.0 (20200408.0750)
 -->
<!-- Title: dependency&#45;cruiser output Pages: 1 -->
<svg width="519pt" height="256pt"
 viewBox="0.00 0.00 519.00 256.00" xmlns="http://www.w3.org/2000/svg" xmlns:xlink="http://www.w3.org/1999/xlink">
<g id="graph0" class="graph" transform="scale(1 1) rotate(0) translate(4 252)">
<title>dependency&#45;cruiser output</title>
<polygon fill="white" stroke="transparent" points="-4,4 -4,-252 515,-252 515,4 -4,4"/>
<g id="clust1" class="cluster">
<title>cluster_src</title>
<path fill="#ffffff" stroke="black" stroke-width="2" d="M20,-8C20,-8 491,-8 491,-8 497,-8 503,-14 503,-20 503,-20 503,-228 503,-228 503,-234 497,-240 491,-240 491,-240 20,-240 20,-240 14,-240 8,-234 8,-228 8,-228 8,-20 8,-20 8,-14 14,-8 20,-8"/>
<text text-anchor="middle" x="255.5" y="-228.8" font-family="Helvetica,sans-Serif" font-weight="bold" font-size="9.00">src</text>
</g>
<g id="clust2" class="cluster">
<title>cluster_src/other</title>
<path fill="#ffffff" stroke="black" stroke-width="2" d="M37,-162C37,-162 109,-162 109,-162 115,-162 121,-168 121,-174 121,-174 121,-202 121,-202 121,-208 115,-214 109,-214 109,-214 37,-214 37,-214 31,-214 25,-208 25,-202 25,-202 25,-174 25,-174 25,-168 31,-162 37,-162"/>
<text text-anchor="middle" x="73" y="-202.8" font-family="Helvetica,sans-Serif" font-weight="bold" font-size="9.00">other</text>
</g>
<g id="clust3" class="cluster">
<title>cluster_src/shared</title>
<path fill="#ffffff" stroke="black" stroke-width="2" d="M28,-72C28,-72 370,-72 370,-72 376,-72 382,-78 382,-84 382,-84 382,-142 382,-142 382,-148 376,-154 370,-154 370,-154 28,-154 28,-154 22,-154 16,-148 16,-142 16,-142 16,-84 16,-84 16,-78 22,-72 28,-72"/>
<text text-anchor="middle" x="199" y="-142.8" font-family="Helvetica,sans-Serif" font-weight="bold" font-size="9.00">shared</text>
</g>
<!-- src/app.js -->
<g id="node1" class="node">
<title>src/app.js</title>
<g id="a_node1"><a xlink:href="src/app.js" xlink:title="app.js">
<path fill="#ffffcc" stroke="black" d="M202.5,-34C202.5,-34 160.5,-34 160.5,-34 157.5,-34 154.5,-31 154.5,-28 154.5,-28 154.5,-22 154.5,-22 154.5,-19 157.5,-16 160.5,-16 160.5,-16 202.5,-16 202.5,-16 205.5,-16 208.5,-19 208.5,-22 208.5,-22 208.5,-28 208.5,-28 208.5,-31 205.5,-34 202.5,-34"/>
<text text-anchor="middle" x="181.5" y="-22.8" font-family="Helvetica,sans-Serif" font-size="9.00">app.js</text>
</a>
</g>
</g>
<!-- src/calculator.js -->
<g id="node2" class="node">
<title>src/calculator.js</title>
<g id="a_node2"><a xlink:href="src/calculator.js" xlink:title="calculator.js">
<path fill="#ffffcc" stroke="black" d="M334,-34C334,-34 281,-34 281,-34 278,-34 275,-31 275,-28 275,-28 275,-22 275,-22 275,-19 278,-16 281,-16 281,-16 334,-16 334,-16 337,-16 340,-19 340,-22 340,-22 340,-28 340,-28 340,-31 337,-34 334,-34"/>
<text text-anchor="middle" x="307.5" y="-22.8" font-family="Helvetica,sans-Serif" font-size="9.00">calculator.js</text>
</a>
</g>
</g>
<!-- src/app.js&#45;&gt;src/calculator.js -->
<g id="edge1" class="edge">
<title>src/app.js&#45;&gt;src/calculator.js</title>
<path fill="none" stroke="#000000" stroke-width="2" stroke-opacity="0.200000" d="M208.8,-25C226.25,-25 249.42,-25 268.82,-25"/>
<polygon fill="#000000" fill-opacity="0.200000" stroke="#000000" stroke-width="2" stroke-opacity="0.200000" points="268.97,-27.1 274.97,-25 268.97,-22.9 268.97,-27.1"/>
</g>
<!-- src/themes.js -->
<g id="node3" class="node">
<title>src/themes.js</title>
<g id="a_node3"><a xlink:href="src/themes.js" xlink:title="themes.js">
<path fill="#ffffcc" stroke="black" d="M329.5,-64C329.5,-64 285.5,-64 285.5,-64 282.5,-64 279.5,-61 279.5,-58 279.5,-58 279.5,-52 279.5,-52 279.5,-49 282.5,-46 285.5,-46 285.5,-46 329.5,-46 329.5,-46 332.5,-46 335.5,-49 335.5,-52 335.5,-52 335.5,-58 335.5,-58 335.5,-61 332.5,-64 329.5,-64"/>
<text text-anchor="middle" x="307.5" y="-52.8" font-family="Helvetica,sans-Serif" font-size="9.00">themes.js</text>
</a>
</g>
</g>
<!-- src/app.js&#45;&gt;src/themes.js -->
<g id="edge2" class="edge">
<title>src/app.js&#45;&gt;src/themes.js</title>
<path fill="none" stroke="#000000" stroke-width="2" stroke-opacity="0.200000" d="M208.67,-31.87C218.76,-34.47 230.4,-37.43 241,-40 251.52,-42.55 263.02,-45.23 273.4,-47.6"/>
<polygon fill="#000000" fill-opacity="0.200000" stroke="#000000" stroke-width="2" stroke-opacity="0.200000" points="273.06,-49.67 279.38,-48.95 273.99,-45.58 273.06,-49.67"/>
</g>
<!-- src/calculator.module.css -->
<g id="node4" class="node">
<title>src/calculator.module.css</title>
<g id="a_node4"><a xlink:href="src/calculator.module.css" xlink:title="calculator.module.css">
<path fill="#ffffcc" stroke="black" d="M489,-34C489,-34 396,-34 396,-34 393,-34 390,-31 390,-28 390,-28 390,-22 390,-22 390,-19 393,-16 396,-16 396,-16 489,-16 489,-16 492,-16 495,-19 495,-22 495,-22 495,-28 495,-28 495,-31 492,-34 489,-34"/>
<text text-anchor="middle" x="442.5" y="-22.8" font-family="Helvetica,sans-Serif" font-size="9.00">calculator.module.css</text>
</a>
</g>
</g>
<!-- src/calculator.js&#45;&gt;src/calculator.module.css -->
<g id="edge3" class="edge">
<title>src/calculator.js&#45;&gt;src/calculator.module.css</title>
<path fill="none" stroke="#000000" stroke-width="2" stroke-opacity="0.200000" d="M340.02,-25C353.06,-25 368.61,-25 383.57,-25"/>
<polygon fill="#000000" fill-opacity="0.200000" stroke="#000000" stroke-width="2" stroke-opacity="0.200000" points="383.93,-27.1 389.93,-25 383.93,-22.9 383.93,-27.1"/>
</g>
<!-- src/global.css -->
<g id="node5" class="node">
<title>src/global.css</title>
<g id="a_node5"><a xlink:href="src/global.css" xlink:title="global.css">
<path fill="#ffffcc" stroke="black" d="M204.5,-64C204.5,-64 158.5,-64 158.5,-64 155.5,-64 152.5,-61 152.5,-58 152.5,-58 152.5,-52 152.5,-52 152.5,-49 155.5,-46 158.5,-46 158.5,-46 204.5,-46 204.5,-46 207.5,-46 210.5,-49 210.5,-52 210.5,-52 210.5,-58 210.5,-58 210.5,-61 207.5,-64 204.5,-64"/>
<text text-anchor="middle" x="181.5" y="-52.8" font-family="Helvetica,sans-Serif" font-size="9.00">global.css</text>
</a>
</g>
</g>
<!-- src/index.js -->
<g id="node6" class="node">
<title>src/index.js</title>
<g id="a_node6"><a xlink:href="src/index.js" xlink:title="index.js">
<path fill="#ffffcc" stroke="black" d="M94,-49C94,-49 52,-49 52,-49 49,-49 46,-46 46,-43 46,-43 46,-37 46,-37 46,-34 49,-31 52,-31 52,-31 94,-31 94,-31 97,-31 100,-34 100,-37 100,-37 100,-43 100,-43 100,-46 97,-49 94,-49"/>
<text text-anchor="middle" x="73" y="-37.8" font-family="Helvetica,sans-Serif" font-size="9.00">index.js</text>
</a>
</g>
</g>
<!-- src/index.js&#45;&gt;src/app.js -->
<g id="edge4" class="edge">
<title>src/index.js&#45;&gt;src/app.js</title>
<path fill="none" stroke="#000000" stroke-width="2" stroke-opacity="0.200000" d="M100.05,-36.33C114.62,-34.28 132.91,-31.7 148.36,-29.53"/>
<polygon fill="#000000" fill-opacity="0.200000" stroke="#000000" stroke-width="2" stroke-opacity="0.200000" points="148.7,-31.6 154.35,-28.68 148.11,-27.44 148.7,-31.6"/>
</g>
<!-- src/index.js&#45;&gt;src/global.css -->
<g id="edge5" class="edge">
<title>src/index.js&#45;&gt;src/global.css</title>
<path fill="none" stroke="#000000" stroke-width="2" stroke-opacity="0.200000" d="M100.05,-43.67C113.95,-45.63 131.24,-48.06 146.22,-50.17"/>
<polygon fill="#000000" fill-opacity="0.200000" stroke="#000000" stroke-width="2" stroke-opacity="0.200000" points="146.24,-52.3 152.48,-51.05 146.83,-48.14 146.24,-52.3"/>
</g>
<!-- src/other/super&#45;heroes.js -->
<g id="node7" class="node">
<title>src/other/super&#45;heroes.js</title>
<g id="a_node7"><a xlink:href="src/other/super-heroes.js" xlink:title="super&#45;heroes.js">
<path fill="#ccffcc" stroke="black" d="M107,-188C107,-188 39,-188 39,-188 36,-188 33,-185 33,-182 33,-182 33,-176 33,-176 33,-173 36,-170 39,-170 39,-170 107,-170 107,-170 110,-170 113,-173 113,-176 113,-176 113,-182 113,-182 113,-185 110,-188 107,-188"/>
<text text-anchor="middle" x="73" y="-176.8" font-family="Helvetica,sans-Serif" font-size="9.00">super&#45;heroes.js</text>
</a>
</g>
</g>
<!-- src/shared/auto&#45;scaling&#45;text.js -->
<g id="node8" class="node">
<title>src/shared/auto&#45;scaling&#45;text.js</title>
<g id="a_node8"><a xlink:href="src/shared/auto-scaling-text.js" xlink:title="auto&#45;scaling&#45;text.js">
<path fill="#ffffcc" stroke="black" d="M222,-98C222,-98 141,-98 141,-98 138,-98 135,-95 135,-92 135,-92 135,-86 135,-86 135,-83 138,-80 141,-80 141,-80 222,-80 222,-80 225,-80 228,-83 228,-86 228,-86 228,-92 228,-92 228,-95 225,-98 222,-98"/>
<text text-anchor="middle" x="181.5" y="-86.8" font-family="Helvetica,sans-Serif" font-size="9.00">auto&#45;scaling&#45;text.js</text>
</a>
</g>
</g>
<!-- src/shared/auto&#45;scaling&#45;text.module.css -->
<g id="node9" class="node">
<title>src/shared/auto&#45;scaling&#45;text.module.css</title>
<g id="a_node9"><a xlink:href="src/shared/auto-scaling-text.module.css" xlink:title="auto&#45;scaling&#45;text.module.css">
<path fill="#ffffcc" stroke="black" d="M368,-98C368,-98 247,-98 247,-98 244,-98 241,-95 241,-92 241,-92 241,-86 241,-86 241,-83 244,-80 247,-80 247,-80 368,-80 368,-80 371,-80 374,-83 374,-86 374,-86 374,-92 374,-92 374,-95 371,-98 368,-98"/>
<text text-anchor="middle" x="307.5" y="-86.8" font-family="Helvetica,sans-Serif" font-size="9.00">auto&#45;scaling&#45;text.module.css</text>
</a>
</g>
</g>
<!-- src/shared/auto&#45;scaling&#45;text.js&#45;&gt;src/shared/auto&#45;scaling&#45;text.module.css -->
<g id="edge6" class="edge">
<title>src/shared/auto&#45;scaling&#45;text.js&#45;&gt;src/shared/auto&#45;scaling&#45;text.module.css</title>
<path fill="none" stroke="#000000" stroke-width="2" stroke-opacity="0.200000" d="M228.32,-89C230.39,-89 232.49,-89 234.6,-89"/>
<polygon fill="#000000" fill-opacity="0.200000" stroke="#000000" stroke-width="2" stroke-opacity="0.200000" points="234.97,-91.1 240.97,-89 234.97,-86.9 234.97,-91.1"/>
</g>
<!-- src/shared/calculator&#45;display.js -->
<g id="node10" class="node">
<title>src/shared/calculator&#45;display.js</title>
<g id="a_node10"><a xlink:href="src/shared/calculator-display.js" xlink:title="calculator&#45;display.js">
<path fill="#ffffcc" stroke="black" d="M116,-113C116,-113 30,-113 30,-113 27,-113 24,-110 24,-107 24,-107 24,-101 24,-101 24,-98 27,-95 30,-95 30,-95 116,-95 116,-95 119,-95 122,-98 122,-101 122,-101 122,-107 122,-107 122,-110 119,-113 116,-113"/>
<text text-anchor="middle" x="73" y="-101.8" font-family="Helvetica,sans-Serif" font-size="9.00">calculator&#45;display.js</text>
</a>
</g>
</g>
<!-- src/shared/calculator&#45;display.js&#45;&gt;src/shared/auto&#45;scaling&#45;text.js -->
<g id="edge7" class="edge">
<title>src/shared/calculator&#45;display.js&#45;&gt;src/shared/auto&#45;scaling&#45;text.js</title>
<path fill="none" stroke="#000000" stroke-width="2" stroke-opacity="0.200000" d="M122.26,-97.2C124.36,-96.91 126.46,-96.61 128.56,-96.32"/>
<polygon fill="#000000" fill-opacity="0.200000" stroke="#000000" stroke-width="2" stroke-opacity="0.200000" points="129.18,-98.35 134.83,-95.43 128.6,-94.19 129.18,-98.35"/>
</g>
<!-- src/shared/utils.js -->
<g id="node11" class="node">
<title>src/shared/utils.js</title>
<g id="a_node11"><a xlink:href="src/shared/utils.js" xlink:title="utils.js">
<path fill="#ffffcc" stroke="black" d="M202.5,-128C202.5,-128 160.5,-128 160.5,-128 157.5,-128 154.5,-125 154.5,-122 154.5,-122 154.5,-116 154.5,-116 154.5,-113 157.5,-110 160.5,-110 160.5,-110 202.5,-110 202.5,-110 205.5,-110 208.5,-113 208.5,-116 208.5,-116 208.5,-122 208.5,-122 208.5,-125 205.5,-128 202.5,-128"/>
<text text-anchor="middle" x="181.5" y="-116.8" font-family="Helvetica,sans-Serif" font-size="9.00">utils.js</text>
</a>
</g>
</g>
<!-- src/shared/calculator&#45;display.js&#45;&gt;src/shared/utils.js -->
<g id="edge8" class="edge">
<title>src/shared/calculator&#45;display.js&#45;&gt;src/shared/utils.js</title>
<path fill="none" stroke="#000000" stroke-width="2" stroke-opacity="0.200000" d="M122.26,-110.8C131.04,-112.03 139.99,-113.29 148.16,-114.45"/>
<polygon fill="#000000" fill-opacity="0.200000" stroke="#000000" stroke-width="2" stroke-opacity="0.200000" points="148.01,-116.54 154.24,-115.3 148.59,-112.39 148.01,-116.54"/>
</g>
</g>
</svg>
